<svg width="41" height="14" viewBox="0 0 41 14" fill="none" xmlns="http://www.w3.org/2000/svg">
<path d="M2.26327 3.85054C2.28185 6.33047 2.35002 7.954 2.46777 8.72114C2.46921 8.91314 2.28638 9.07051 1.91929 9.19326C1.55226 9.32402 1.24875 9.39029 1.00875 9.39209C0.768759 9.39389 0.648493 9.35879 0.647954 9.28679C0.647594 9.23879 0.659144 9.1787 0.682604 9.10653C0.832083 8.7694 0.897952 7.41686 0.880212 5.04893C0.86343 2.80899 0.758113 1.56575 0.564261 1.31919L0.515723 1.24756C0.467425 1.20792 0.443066 1.1601 0.442646 1.1041C0.442167 1.0401 0.485776 0.987772 0.573474 0.947114C0.692931 0.874217 0.904386 0.80063 1.20784 0.726355C1.51929 0.65202 1.79901 0.613923 2.04701 0.612065C2.295 0.610207 2.41941 0.665276 2.42025 0.777273L2.42052 0.813273C2.33076 1.64597 2.27834 2.65839 2.26327 3.85054ZM6.96028 5.91541L7.01143 6.33503C7.01256 6.48703 6.86914 6.56411 6.58115 6.56626C5.99716 6.57064 5.70352 6.35283 5.70023 5.91285C5.69945 5.80885 5.72637 5.66464 5.78099 5.48023C5.83561 5.29581 5.86241 5.13561 5.86139 4.99961C5.86037 4.86362 5.8195 4.74792 5.73878 4.65252C5.65801 4.54912 5.54162 4.49799 5.38963 4.49913C5.23763 4.50027 5.10605 4.55726 4.9949 4.67009C4.89168 4.77487 4.82849 4.88335 4.80533 4.99552L4.75859 5.16388C4.71245 5.41223 4.69156 5.8284 4.69594 6.41238C4.70025 6.98837 4.71167 7.44429 4.73019 7.78017C4.74864 8.10804 4.76635 8.33591 4.78331 8.46379C4.80021 8.58366 4.80875 8.6556 4.80893 8.6796C4.81043 8.8796 4.68763 9.04052 4.44053 9.16237C4.1935 9.29223 3.94599 9.35808 3.69799 9.35994C3.45 9.3618 3.32561 9.31073 3.32484 9.20673L3.38205 8.83429C3.48883 8.13748 3.53803 7.22908 3.52963 6.10911C3.52124 4.98914 3.47555 4.22946 3.39256 3.83008C3.39184 3.73408 3.47548 3.68545 3.64347 3.68419C4.07546 3.68095 4.36456 3.82679 4.51077 4.12171C4.51901 4.15365 4.53113 4.16956 4.54713 4.16944C4.57113 4.16926 4.62686 4.13284 4.71432 4.06018C4.97669 3.84221 5.28787 3.73187 5.64786 3.72918C5.87186 3.7275 6.09618 3.76982 6.32083 3.85614C6.7782 4.03672 7.00907 4.419 7.01345 5.00298L6.96028 5.91541ZM11.7979 3.7551C11.6603 4.62016 11.5966 5.72067 11.6066 7.05663C11.614 8.0406 11.6588 8.68828 11.7411 8.99968L11.7903 9.15531C11.7911 9.25931 11.7035 9.31197 11.5275 9.31329C10.9115 9.3179 10.5582 9.14854 10.4677 8.80521C10.4594 8.76527 10.4392 8.74542 10.4072 8.74566C10.3832 8.74584 10.3593 8.76202 10.3356 8.7942C10.09 9.12405 9.70727 9.29092 9.18728 9.29482C8.89929 9.29697 8.59876 9.22722 8.28569 9.08557C8.09304 8.99901 7.9359 8.84818 7.81429 8.63308C7.69261 8.40999 7.63058 8.13845 7.62818 7.81846L7.78849 5.18918C7.78435 4.6372 7.72542 4.24563 7.61168 4.01447C7.57102 3.92677 7.5506 3.87093 7.55042 3.84693C7.55007 3.79893 7.56983 3.76678 7.6097 3.75048C7.7374 3.70952 7.90125 3.68829 8.10124 3.6868C8.87722 3.68098 9.26761 3.99807 9.2724 4.63805C9.2739 4.83804 9.19332 5.29466 9.03066 6.0079C8.87599 6.72108 8.7998 7.22966 8.80208 7.53365C8.8043 7.82964 8.87 8.05716 8.9992 8.2162C9.13639 8.37517 9.32099 8.45379 9.55298 8.45205C9.79297 8.45026 9.98034 8.36485 10.1151 8.19584C10.2498 8.02682 10.3286 7.85823 10.3513 7.69005L10.3854 7.43779C10.4153 7.15756 10.4276 6.66545 10.4223 5.96147C10.4171 5.25749 10.3897 4.81368 10.3404 4.63005C10.2989 4.43835 10.278 4.31851 10.2777 4.27051C10.2762 4.07051 10.435 3.91332 10.7542 3.79892C11.0732 3.67653 11.3608 3.61437 11.6168 3.61246C11.7368 3.61156 11.7971 3.65911 11.7979 3.7551ZM13.1737 4.24881C13.3483 4.0635 13.5792 3.90976 13.8663 3.78761C14.1533 3.65745 14.4288 3.59139 14.6928 3.58941C14.9568 3.58743 15.2253 3.64542 15.4981 3.76338C15.5301 3.76314 15.5541 3.75496 15.57 3.73884C15.7764 3.52929 16.0796 3.42302 16.4796 3.42002C16.5756 3.4193 16.6239 3.46294 16.6246 3.55094C16.6246 3.55894 16.6169 3.595 16.6014 3.65911C16.5859 3.72323 16.5666 3.81938 16.5436 3.94756C16.5205 4.06773 16.5016 4.21588 16.4869 4.39199C16.4343 4.8484 16.4061 5.35263 16.4022 5.90467C16.4063 6.45665 16.4105 7.00864 16.4146 7.56062L16.4695 10.0803C16.4756 10.8883 16.2726 11.5618 15.8606 12.1009C15.6942 12.3182 15.4397 12.5081 15.0969 12.6706C14.7621 12.8332 14.3667 12.9161 13.9107 12.9195C13.8062 12.8563 13.7537 12.7927 13.7533 12.7287C13.7528 12.6647 13.7964 12.6124 13.8841 12.5717C14.3863 12.336 14.7422 11.7813 14.9517 10.9077C15.1612 10.0421 15.2593 8.72531 15.2461 6.95736L15.2095 5.27759L15.1674 4.46188C15.1668 4.38988 15.0544 4.33872 14.8302 4.3084C14.5422 4.31056 14.2989 4.40838 14.1004 4.60188C13.9098 4.78731 13.7796 5.03229 13.7099 5.33682C13.5855 5.82577 13.5247 6.25024 13.5274 6.61023C13.5301 6.96222 13.5884 7.27379 13.7024 7.54494C13.8245 7.81604 14.0295 7.9505 14.3175 7.94835C14.3975 7.94775 14.4693 7.93121 14.5331 7.89873C14.6049 7.86619 14.6527 7.84983 14.6767 7.84965C14.7567 7.84905 14.7973 7.92875 14.7985 8.08875C14.7997 8.24874 14.7887 8.38083 14.7655 8.485C14.7422 8.58118 14.695 8.68954 14.6239 8.81007C14.4659 9.07526 14.1549 9.2096 13.6909 9.21307C13.2269 9.21655 12.8937 9.05104 12.6912 8.71655C12.4806 8.37412 12.3583 8.06703 12.3243 7.79527C12.2732 7.38764 12.2472 7.11983 12.2462 6.99184C12.2453 6.86384 12.2445 6.76384 12.244 6.69184C12.2514 6.61179 12.2703 6.45964 12.3006 6.23541C12.3388 6.00311 12.3852 5.78676 12.4397 5.58635C12.5022 5.37787 12.5964 5.14916 12.7226 4.90021C12.8487 4.64326 12.999 4.42612 13.1737 4.24881ZM21.1917 5.42478L21.1792 6.96091C21.1872 8.02488 21.308 8.66399 21.5416 8.87825C21.5738 8.91001 21.5901 8.94589 21.5904 8.98589C21.5913 9.10588 21.3318 9.16783 20.8118 9.17173C20.2998 9.17556 20.0267 9.0256 19.9924 8.72185C19.9838 8.64991 19.9787 8.50195 19.9771 8.27796L20.0107 6.35765C20.0103 6.30165 19.978 6.27389 19.9141 6.27437C19.5301 6.27725 19.1709 6.38794 18.8365 6.60645C18.5021 6.82496 18.3362 7.10221 18.3387 7.43821C18.34 7.6142 18.3892 7.76184 18.486 7.88111C18.5829 8.00039 18.6994 8.05952 18.8354 8.0585C18.9794 8.05742 19.0952 8.02855 19.1827 7.9719C19.2783 7.91518 19.3341 7.88276 19.35 7.87464C19.4861 7.88962 19.5552 8.03311 19.5573 8.3051C19.5592 8.56909 19.4369 8.78602 19.1901 8.95587C18.9433 9.11772 18.6839 9.19967 18.4119 9.20171C18.1399 9.20374 17.9036 9.15751 17.7029 9.06301C17.5102 8.96846 17.3694 8.86151 17.2805 8.74217C17.1916 8.62283 17.1186 8.48738 17.0614 8.3358C17.004 8.15222 16.9748 7.99244 16.9738 7.85644C16.9696 7.29646 17.1423 6.84715 17.4917 6.50852C17.8412 6.1699 18.2914 5.92652 18.8423 5.77839C19.5692 5.62894 19.9482 5.49409 19.9793 5.37386C20.0026 5.28568 20.0135 5.13759 20.012 4.9296C20.0088 4.50561 19.7912 4.29524 19.3592 4.29847C19.1752 4.29985 19.0117 4.36108 18.8686 4.48215C18.7254 4.59523 18.6545 4.73976 18.6558 4.91576L18.73 5.20321C18.715 5.33933 18.5716 5.4204 18.2998 5.44644L18.1679 5.45943C17.9279 5.46123 17.7355 5.40267 17.5906 5.28375C17.4537 5.16477 17.3845 5.00529 17.383 4.80529C17.382 4.6773 17.421 4.537 17.4998 4.3844C17.5866 4.22375 17.6937 4.09494 17.8209 3.99799C17.9482 3.90103 18.1436 3.81557 18.407 3.74159C18.6784 3.65955 18.9381 3.61761 19.1861 3.61575C19.4341 3.61389 19.6262 3.62045 19.7623 3.63543C19.8984 3.65041 20.0827 3.68903 20.3152 3.75129C20.5556 3.8055 20.7524 3.91602 20.9057 4.08288C21.0669 4.24968 21.1523 4.42904 21.1617 4.62098C21.1791 4.80485 21.1891 5.07278 21.1917 5.42478ZM26.4942 4.84503L26.2187 4.9191C26.0747 4.92018 26.0017 4.78872 25.9997 4.52473C25.9977 4.25274 26.0921 4.03602 26.2829 3.87459C26.4816 3.7051 26.733 3.61921 27.037 3.61693C27.205 3.61568 27.3853 3.66633 27.5781 3.76888C27.7708 3.86344 27.9318 3.98624 28.0609 4.13728C28.19 4.28031 28.3037 4.51147 28.4021 4.83074C28.5084 5.14195 28.5632 5.50955 28.5664 5.93354C28.5737 6.90951 28.3156 7.70347 27.7922 8.31541C27.2768 8.92729 26.5231 9.23694 25.5311 9.24437C25.2431 9.24653 24.9589 9.22066 24.6785 9.16676L24.5583 9.14366C24.4541 9.11244 24.3936 9.05689 24.377 8.97701C24.3518 8.8092 24.3368 8.4133 24.3321 7.78931L24.375 3.90088C24.3705 3.3009 24.3511 2.84103 24.3167 2.52128L24.2914 2.35347C24.2737 2.12959 24.2243 1.93796 24.1431 1.77856C24.0699 1.61911 23.9971 1.51565 23.9248 1.46819L23.8283 1.40891C23.7721 1.37733 23.7438 1.34154 23.7435 1.30154C23.7426 1.18155 23.9416 1.04005 24.3404 0.877059C24.7391 0.706067 25.0305 0.619882 25.2145 0.618503C25.3984 0.617125 25.4948 0.664404 25.5035 0.760341C25.5632 1.24791 25.5964 1.94368 25.6032 2.84765L25.5647 5.72802C25.5742 6.98399 25.6167 7.85169 25.6922 8.33114C25.7011 8.44308 25.8255 8.49815 26.0655 8.49635C26.3135 8.49449 26.525 8.4249 26.6999 8.28759C26.8749 8.15028 27.0056 7.96929 27.0919 7.74464C27.2488 7.33545 27.3254 6.88286 27.3217 6.38688C27.32 6.15488 27.2861 5.90313 27.2201 5.63162C27.1041 5.10447 26.8621 4.84228 26.4942 4.84503ZM30.3 2.51246L30.2967 3.67651C30.2971 3.72451 30.3133 3.74839 30.3453 3.74815C30.3773 3.74791 30.4092 3.73567 30.441 3.71143C30.64 3.57394 30.9554 3.50357 31.3874 3.50034C32.1154 3.49488 32.6213 3.7391 32.905 4.23299C33.0103 4.41621 33.0642 4.65981 33.0664 4.9638C33.0687 5.26779 33.0519 5.68793 33.0159 6.22421C32.9879 6.76044 32.9748 7.14055 32.9764 7.36454C32.9823 8.14852 33.0982 8.66767 33.3241 8.92198C33.3644 8.96168 33.3847 9.00153 33.385 9.04153C33.3856 9.12153 33.2139 9.16281 32.8699 9.16539C31.9419 9.17234 31.4747 8.74383 31.4682 7.87986C31.4657 7.54387 31.5422 7.07128 31.6976 6.4621C31.8531 5.85292 31.9297 5.40433 31.9276 5.11634C31.9254 4.82835 31.8558 4.60886 31.7186 4.45788C31.5814 4.29891 31.3928 4.22032 31.1528 4.22212C30.9128 4.22391 30.7212 4.27735 30.578 4.38243C30.4428 4.48744 30.3596 4.59607 30.3285 4.70831L30.2936 4.86457C30.2868 5.01663 30.2864 5.50064 30.2925 6.31662C30.2986 7.1326 30.3226 7.66443 30.3645 7.91213C30.4063 8.15182 30.4273 8.28767 30.4275 8.31967C30.4293 8.55166 30.2748 8.76082 29.9642 8.94715C29.6535 9.12549 29.3462 9.21579 29.0422 9.21807C28.9302 9.21891 28.8737 9.15533 28.8728 9.02733L28.8951 8.79916C29.061 7.45388 29.1381 5.99726 29.1263 4.4293C29.1218 3.82132 29.0932 3.20552 29.0405 2.5819L29.0265 2.31799C29.0088 2.09412 28.9594 1.90248 28.8782 1.74309C28.805 1.58363 28.7362 1.48014 28.6719 1.43262L28.5634 1.37344C28.5072 1.34186 28.4789 1.30607 28.4786 1.26607C28.4778 1.15407 28.6648 1.01667 29.0395 0.853853C29.4143 0.683041 29.7016 0.596886 29.9016 0.595388C30.1096 0.59383 30.222 0.636989 30.2386 0.724867C30.2737 1.13262 30.2941 1.72848 30.3 2.51246ZM37.7264 5.3009L37.7139 6.83704C37.7219 7.90101 37.8427 8.54012 38.0763 8.75438C38.1085 8.78613 38.1248 8.82201 38.1251 8.86201C38.126 8.98201 37.8665 9.04396 37.3465 9.04785C36.8345 9.05169 36.5614 8.90173 36.5271 8.59798C36.5185 8.52604 36.5134 8.37807 36.5118 8.15408L36.5454 6.23377C36.545 6.17778 36.5127 6.15002 36.4487 6.1505C36.0648 6.15337 35.7056 6.26407 35.3712 6.48258C35.0368 6.70109 34.8709 6.97834 34.8734 7.31433C34.8747 7.49032 34.9238 7.63796 35.0207 7.75724C35.1176 7.87652 35.2341 7.93565 35.3701 7.93463C35.5141 7.93355 35.6299 7.90468 35.7174 7.84802C35.813 7.7913 35.8688 7.75889 35.8847 7.75077C36.0208 7.76575 36.0899 7.90923 36.0919 8.18123C36.0939 8.44522 35.9715 8.66214 35.7248 8.83199C35.478 8.99385 35.2186 9.07579 34.9466 9.07783C34.6746 9.07987 34.4383 9.03364 34.2376 8.93914C34.0449 8.84458 33.9041 8.73763 33.8152 8.61829C33.7263 8.49896 33.6532 8.3635 33.5961 8.21192C33.5387 8.02835 33.5095 7.86856 33.5085 7.73257C33.5043 7.17258 33.677 6.72328 34.0264 6.38465C34.3759 6.04602 34.8261 5.80264 35.377 5.65451C36.1039 5.50506 36.4829 5.37022 36.514 5.24998C36.5373 5.1618 36.5482 5.01372 36.5467 4.80572C36.5435 4.38174 36.3259 4.17136 35.8939 4.1746C35.7099 4.17597 35.5464 4.2372 35.4033 4.35828C35.2601 4.47135 35.1892 4.61589 35.1905 4.79188L35.2647 5.07934C35.2497 5.21545 35.1063 5.29653 34.8345 5.32257L34.7026 5.33555C34.4626 5.33735 34.2702 5.27879 34.1253 5.15987C33.9884 5.0409 33.9192 4.88141 33.9177 4.68142C33.9167 4.55342 33.9557 4.41312 34.0345 4.26053C34.1213 4.09987 34.2284 3.97107 34.3556 3.87411C34.4829 3.77716 34.6783 3.69169 34.9417 3.61771C35.2131 3.53568 35.4728 3.49373 35.7208 3.49187C35.9688 3.49002 36.1609 3.49658 36.297 3.51156C36.4331 3.52654 36.6174 3.56516 36.8499 3.62742C37.0903 3.68162 37.2871 3.79215 37.4404 3.959C37.6016 4.1258 37.687 4.30517 37.6964 4.4971C37.7138 4.68098 37.7238 4.94891 37.7264 5.3009ZM39.6676 2.46628L39.3795 2.45644C39.1635 2.45805 39.0239 2.5111 38.9607 2.61558C38.9449 2.6397 38.925 2.65185 38.901 2.65203C38.797 2.6528 38.7437 2.4772 38.741 2.12521C38.7383 1.76522 38.7886 1.53684 38.8919 1.44006C39.0032 1.34322 39.1908 1.29382 39.4548 1.29184C39.7268 1.2898 39.9111 1.33642 40.0079 1.4317C40.1045 1.51898 40.1537 1.67061 40.1553 1.88661C40.1569 2.1026 40.122 2.25487 40.0507 2.3434C39.9793 2.42394 39.8516 2.4649 39.6676 2.46628ZM38.753 8.5333L38.8641 5.73639C38.8591 5.07241 38.7797 4.62099 38.6259 4.38213C38.5773 4.3025 38.5209 4.24292 38.4566 4.2034C38.4085 4.18776 38.3842 4.15594 38.3839 4.10794C38.3828 3.96394 38.5857 3.82242 38.9927 3.68337C39.3997 3.54431 39.6952 3.4741 39.8792 3.47272C40.0711 3.47128 40.1715 3.51853 40.1802 3.61447C40.1814 3.77446 40.1608 4.23063 40.1185 4.98297C40.084 5.72725 40.0699 6.51138 40.0761 7.33535C40.0823 8.15933 40.1341 8.67096 40.2316 8.87023C40.2559 8.91005 40.2682 8.94996 40.2685 8.98996C40.2693 9.09396 40.1177 9.14709 39.8137 9.14937C39.5097 9.15165 39.1971 9.07399 38.8759 8.91639C38.7956 8.87699 38.7547 8.74929 38.753 8.5333Z" fill="black"/>
</svg>
